<svg width="32" height="33" viewBox="0 0 32 33" fill="none" xmlns="http://www.w3.org/2000/svg">
<path d="M31.97 10.7609L30.16 3.51693C29.938 2.62693 29.138 2.00293 28.22 2.00293H3.782C2.864 2.00293 2.064 2.62693 1.84 3.51693L0.03 10.7609C0.01 10.8389 0 10.9209 0 11.0029C0 13.7589 2.13 16.0029 4.75 16.0029C6.272 16.0029 7.63 15.2449 8.5 14.0689C9.37 15.2449 10.728 16.0029 12.25 16.0029C13.772 16.0029 15.13 15.2449 16 14.0689C16.87 15.2449 18.226 16.0029 19.75 16.0029C21.274 16.0029 22.63 15.2449 23.5 14.0689C24.37 15.2449 25.726 16.0029 27.25 16.0029C29.87 16.0029 32 13.7589 32 11.0029C32 10.9209 31.99 10.8389 31.97 10.7609Z" fill="white"/>
<path d="M27.25 18.0029C25.888 18.0029 24.594 17.5869 23.5 16.8269C21.312 18.3489 18.188 18.3489 16 16.8269C13.812 18.3489 10.688 18.3489 8.5 16.8269C7.406 17.5869 6.112 18.0029 4.75 18.0029C3.768 18.0029 2.842 17.7729 2 17.3809V28.0029C2 29.1069 2.896 30.0029 4 30.0029H12V22.0029H20V30.0029H28C29.104 30.0029 30 29.1069 30 28.0029V17.3809C29.158 17.7729 28.232 18.0029 27.25 18.0029Z" fill="white"/>
</svg>
